# xmcd
#
# Track frame offsets:
#	150
#	21647
#	42450
#	60395
#	81510
#	93170
#	124407
#	141927
#	158284
#	176697
#	196670
#	215370
#	231417
#	248682
#	266517
#	284472
#	322005
#
# Disc length: 4455 seconds
#
# Revision: 2
# Processed by: cddbd v1.5.1PL2 Copyright (c) Steve Scherf et al.
# Submitted via: audiograbber 1.83.01
#
DISCID=f6116511
DTITLE=Det Bedste Af Dansk Musik - Det Bedste Af Dansk Musik 1983 - 1984 Disk 2
DYEAR=1998
DGENRE=Dansk Rock and Pop
TTITLE0=Gunnar Nu - Rap Nu
TTITLE1=Klaus Kjellerup - Spring Ud
TTITLE2=Tøsedrengene - Vi Var Engang Så Tæt
TTITLE3=Tv2 - Be Babalula
TTITLE4=Shu-bi-dua - Humbug
TTITLE5=Anne Linnet - Glor På Vinduer
TTITLE6=Laid Back - White Horse
TTITLE7=Voss and Torp and Brill - Hen Til Pagoden
TTITLE8=Gnags - Fodgænger
TTITLE9=Lasse Helner - Vi Er Ikke To Der Er Ens
TTITLE10=Rocazino - Columbia
TTITLE11=Kasper Winding - Kærlighed
TTITLE12=Sylvester and Svalerne - Familieliv
TTITLE13=Pretty Maids - Red, Hot and Heavy
TTITLE14=Maui Wowie - Forelskelse
TTITLE15=Jan Toftlund - Galimatias
TTITLE16=Sort Sol - Boy Girl
EXTD=0\n\n\n
EXTT0=
EXTT1=
EXTT2=
EXTT3=
EXTT4=
EXTT5=
EXTT6=
EXTT7=
EXTT8=
EXTT9=
EXTT10=
EXTT11=
EXTT12=
EXTT13=
EXTT14=
EXTT15=
EXTT16=
PLAYORDER=
